PathFileType	4	(X/Y/Z)	 New Session 103.trc
DataRate	CameraRate	NumFrames	NumMarkers	Units	OrigDataRate	OrigDataStartFrame	OrigNumFrames
100	100	24	14	m	100	543	620
Frame#	Time	C7			T8			IJ			PX			AA			AC			AI			TS			SC			GH			LE			ME			US			RS			
		X1	Y1	Z1	X2	Y2	Z2	X3	Y3	Z3	X4	Y4	Z4	X5	Y5	Z5	X6	Y6	Z6	X7	Y7	Z7	X8	Y8	Z8	X9	Y9	Z9	X10	Y10	Z10	X11	Y11	Z11	X12	Y12	Z12	X13	Y13	Z13	X14	Y14	Z14	
543	5.4300	0.032965	0.098462	0.158761	0.028494	-0.116552	0.224788	0.001237	-0.000474	-0.006792	-0.003965	-0.141836	-0.076914	0.229199	-0.007382	0.123421	0.176839	0.038214	0.056506	0.114808	0.018616	0.190722	0.111476	-0.099990	0.222202	0.026557	0.007101	-0.002891	0.239200	0.005064	0.082276	0.268829	-0.284183	0.001054	0.181040	-0.302261	-0.026651	0.291957	-0.541339	-0.113092	0.356499	-0.504262	-0.132821	
544	5.4400	0.032916	0.098470	0.158881	0.028423	-0.116572	0.224887	0.001229	-0.000430	-0.006707	-0.003962	-0.141804	-0.076853	0.229151	-0.007368	0.123540	0.176811	0.038239	0.056620	0.114766	0.018607	0.190828	0.111436	-0.100000	0.222301	0.026529	0.007123	-0.002798	0.239170	0.005089	0.082406	0.268798	-0.284179	0.001230	0.181118	-0.302247	-0.026514	0.291983	-0.541324	-0.112980	0.356530	-0.504249	-0.132647	
545	5.4500	0.032856	0.098481	0.158994	0.028346	-0.116590	0.224989	0.001220	-0.000379	-0.006625	-0.003958	-0.141779	-0.076791	0.229097	-0.007359	0.123660	0.176787	0.038261	0.056731	0.114722	0.018592	0.190927	0.111382	-0.099996	0.222437	0.026478	0.007127	-0.002689	0.239135	0.005109	0.082547	0.268751	-0.284175	0.001401	0.181167	-0.302236	-0.026393	0.291985	-0.541316	-0.112870	0.356551	-0.504243	-0.132471	
546	5.4600	0.032789	0.098490	0.159098	0.028264	-0.116608	0.225094	0.001209	-0.000323	-0.006543	-0.003959	-0.141761	-0.076725	0.229041	-0.007350	0.123786	0.176765	0.038281	0.056841	0.114672	0.018572	0.191025	0.111316	-0.099982	0.222601	0.026413	0.007108	-0.002559	0.239095	0.005124	0.082692	0.268700	-0.284167	0.001560	0.181195	-0.302222	-0.026300	0.291994	-0.541298	-0.112741	0.356563	-0.504240	-0.132296	
547	5.4700	0.032724	0.098498	0.159198	0.028181	-0.116624	0.225200	0.001195	-0.000265	-0.006462	-0.003969	-0.141744	-0.076655	0.228984	-0.007341	0.123914	0.176736	0.038301	0.056952	0.114615	0.018551	0.191124	0.111246	-0.099964	0.222772	0.026347	0.007079	-0.002416	0.239049	0.005132	0.082831	0.268655	-0.284154	0.001701	0.181213	-0.302202	-0.026236	0.292026	-0.541262	-0.112584	0.356569	-0.504235	-0.132125	
548	5.4800	0.032668	0.098507	0.159303	0.028098	-0.116641	0.225306	0.001177	-0.000205	-0.006380	-0.003985	-0.141724	-0.076583	0.228923	-0.007336	0.124040	0.176697	0.038324	0.057068	0.114553	0.018533	0.191231	0.111177	-0.099953	0.222924	0.026298	0.007062	-0.002281	0.238999	0.005138	0.082965	0.268620	-0.284139	0.001822	0.181231	-0.302178	-0.026190	0.292050	-0.541219	-0.112425	0.356572	-0.504226	-0.131958	
549	5.4900	0.032622	0.098517	0.159415	0.028019	-0.116657	0.225411	0.001156	-0.000146	-0.006297	-0.004003	-0.141699	-0.076513	0.228862	-0.007330	0.124164	0.176647	0.038351	0.057190	0.114488	0.018519	0.191341	0.111117	-0.099956	0.223038	0.026271	0.007063	-0.002169	0.238953	0.005149	0.083096	0.268587	-0.284119	0.001928	0.181250	-0.302152	-0.026142	0.292044	-0.541178	-0.112283	0.356571	-0.504212	-0.131796	
550	5.5000	0.032577	0.098529	0.159533	0.027945	-0.116674	0.225514	0.001132	-0.000088	-0.006214	-0.004019	-0.141673	-0.076449	0.228806	-0.007324	0.124289	0.176592	0.038379	0.057316	0.114421	0.018505	0.191450	0.111067	-0.099974	0.223108	0.026256	0.007074	-0.002079	0.238914	0.005170	0.083230	0.268551	-0.284093	0.002025	0.181265	-0.302127	-0.026071	0.292017	-0.541142	-0.112153	0.356564	-0.504194	-0.131637	
551	5.5100	0.032522	0.098540	0.159648	0.027877	-0.116691	0.225615	0.001104	-0.000032	-0.006131	-0.004035	-0.141648	-0.076389	0.228753	-0.007313	0.124415	0.176541	0.038403	0.057443	0.114358	0.018489	0.191554	0.111029	-0.100006	0.223139	0.026240	0.007086	-0.002001	0.238879	0.005203	0.083371	0.268510	-0.284062	0.002122	0.181264	-0.302104	-0.025967	0.291985	-0.541107	-0.112024	0.356554	-0.504173	-0.131481	
552	5.5200	0.032447	0.098545	0.159750	0.027815	-0.116707	0.225712	0.001073	0.000021	-0.006050	-0.004052	-0.141626	-0.076328	0.228705	-0.007299	0.124536	0.176496	0.038422	0.057569	0.114302	0.018470	0.191656	0.110998	-0.100046	0.223148	0.026218	0.007097	-0.001922	0.238847	0.005240	0.083514	0.268470	-0.284027	0.002217	0.181238	-0.302079	-0.025835	0.291958	-0.541075	-0.111896	0.356539	-0.504151	-0.131329	
553	5.5300	0.032345	0.098546	0.159835	0.027759	-0.116723	0.225804	0.001041	0.000069	-0.005970	-0.004068	-0.141604	-0.076264	0.228660	-0.007286	0.124650	0.176455	0.038437	0.057697	0.114251	0.018452	0.191758	0.110966	-0.100086	0.223161	0.026194	0.007112	-0.001841	0.238816	0.005273	0.083650	0.268436	-0.283990	0.002313	0.181191	-0.302048	-0.025693	0.291942	-0.541038	-0.111780	0.356523	-0.504130	-0.131188	
554	5.5400	0.032218	0.098543	0.159906	0.027708	-0.116736	0.225893	0.001007	0.000111	-0.005891	-0.004083	-0.141581	-0.076197	0.228616	-0.007276	0.124760	0.176411	0.038446	0.057830	0.114202	0.018436	0.191864	0.110929	-0.100116	0.223193	0.026176	0.007141	-0.001758	0.238784	0.005299	0.083767	0.268411	-0.283954	0.002408	0.181138	-0.302014	-0.025561	0.291938	-0.540992	-0.111681	0.356511	-0.504109	-0.131061	
555	5.5500	0.032075	0.098538	0.159969	0.027660	-0.116747	0.225978	0.000974	0.000146	-0.005815	-0.004096	-0.141557	-0.076128	0.228570	-0.007271	0.124872	0.176361	0.038448	0.057966	0.114150	0.018425	0.191976	0.110884	-0.100134	0.223255	0.026165	0.007189	-0.001680	0.238749	0.005320	0.083868	0.268391	-0.283923	0.002500	0.181099	-0.301979	-0.025450	0.291939	-0.540941	-0.111602	0.356508	-0.504084	-0.130954	
556	5.5600	0.031928	0.098531	0.160036	0.027614	-0.116756	0.226059	0.000943	0.000171	-0.005740	-0.004113	-0.141529	-0.076063	0.228517	-0.007268	0.124990	0.176308	0.038450	0.058102	0.114090	0.018419	0.192094	0.110830	-0.100137	0.223347	0.026152	0.007252	-0.001605	0.238714	0.005340	0.083968	0.268372	-0.283898	0.002582	0.181087	-0.301942	-0.025369	0.291933	-0.540890	-0.111545	0.356514	-0.504049	-0.130870	
557	5.5700	0.031789	0.098518	0.160110	0.027570	-0.116761	0.226138	0.000912	0.000187	-0.005669	-0.004135	-0.141500	-0.076004	0.228458	-0.007263	0.125113	0.176261	0.038468	0.058235	0.114020	0.018415	0.192214	0.110768	-0.100127	0.223467	0.026125	0.007316	-0.001529	0.238678	0.005363	0.084081	0.268350	-0.283872	0.002648	0.181092	-0.301896	-0.025327	0.291913	-0.540838	-0.111513	0.356531	-0.503998	-0.130807	
558	5.5800	0.031665	0.098498	0.160193	0.027525	-0.116763	0.226215	0.000883	0.000193	-0.005602	-0.004159	-0.141470	-0.075953	0.228394	-0.007253	0.125241	0.176226	0.038520	0.058367	0.113942	0.018412	0.192333	0.110696	-0.100107	0.223610	0.026079	0.007366	-0.001447	0.238637	0.005386	0.084213	0.268327	-0.283839	0.002700	0.181094	-0.301837	-0.025324	0.291871	-0.540780	-0.111518	0.356559	-0.503929	-0.130761	
559	5.5900	0.031560	0.098474	0.160282	0.027479	-0.116761	0.226291	0.000854	0.000191	-0.005538	-0.004182	-0.141445	-0.075907	0.228327	-0.007239	0.125371	0.176203	0.038614	0.058496	0.113858	0.018410	0.192447	0.110613	-0.100079	0.223770	0.026024	0.007395	-0.001361	0.238590	0.005409	0.084360	0.268309	-0.283796	0.002748	0.181079	-0.301763	-0.025350	0.291823	-0.540716	-0.111555	0.356596	-0.503847	-0.130728	
560	5.6000	0.031473	0.098450	0.160372	0.027430	-0.116756	0.226367	0.000825	0.000182	-0.005479	-0.004203	-0.141429	-0.075862	0.228252	-0.007225	0.125501	0.176184	0.038728	0.058620	0.113767	0.018409	0.192557	0.110521	-0.100050	0.223934	0.025974	0.007404	-0.001282	0.238538	0.005427	0.084512	0.268301	-0.283746	0.002803	0.181043	-0.301681	-0.025388	0.291803	-0.540636	-0.111603	0.356643	-0.503756	-0.130703	
561	5.6100	0.031400	0.098429	0.160454	0.027380	-0.116748	0.226443	0.000793	0.000170	-0.005424	-0.004225	-0.141421	-0.075813	0.228168	-0.007215	0.125633	0.176157	0.038818	0.058737	0.113670	0.018411	0.192659	0.110422	-0.100025	0.224088	0.025939	0.007398	-0.001213	0.238483	0.005441	0.084660	0.268294	-0.283697	0.002866	0.181003	-0.301602	-0.025414	0.291823	-0.540545	-0.111660	0.356699	-0.503658	-0.130685	
562	5.6200	0.031334	0.098416	0.160525	0.027327	-0.116737	0.226519	0.000757	0.000158	-0.005373	-0.004251	-0.141418	-0.075761	0.228078	-0.007210	0.125765	0.176114	0.038865	0.058847	0.113573	0.018414	0.192751	0.110322	-0.100006	0.224223	0.025921	0.007391	-0.001155	0.238424	0.005456	0.084804	0.268279	-0.283658	0.002934	0.180977	-0.301537	-0.025412	0.291867	-0.540448	-0.111734	0.356764	-0.503553	-0.130673	
563	5.6300	0.031268	0.098413	0.160585	0.027271	-0.116725	0.226595	0.000715	0.000148	-0.005326	-0.004282	-0.141414	-0.075707	0.227988	-0.007210	0.125892	0.176060	0.038880	0.058948	0.113482	0.018418	0.192832	0.110223	-0.099994	0.224335	0.025906	0.007394	-0.001107	0.238360	0.005472	0.084938	0.268258	-0.283629	0.003004	0.180974	-0.301495	-0.025378	0.291919	-0.540356	-0.111825	0.356837	-0.503440	-0.130670	
564	5.6400	0.031199	0.098423	0.160636	0.027211	-0.116711	0.226670	0.000666	0.000142	-0.005282	-0.004314	-0.141403	-0.075657	0.227901	-0.007216	0.126008	0.175999	0.038883	0.059038	0.113400	0.018423	0.192901	0.110129	-0.099985	0.224428	0.025871	0.007416	-0.001065	0.238291	0.005484	0.085053	0.268239	-0.283610	0.003074	0.180990	-0.301476	-0.025317	0.291973	-0.540274	-0.111931	0.356915	-0.503323	-0.130677	
565	5.6500	0.031125	0.098441	0.160682	0.027149	-0.116696	0.226744	0.000611	0.000140	-0.005240	-0.004346	-0.141387	-0.075614	0.227825	-0.007226	0.126104	0.175936	0.038885	0.059118	0.113326	0.018429	0.192961	0.110044	-0.099977	0.224504	0.025806	0.007452	-0.001028	0.238218	0.005487	0.085141	0.268228	-0.283600	0.003139	0.181012	-0.301471	-0.025247	0.292022	-0.540200	-0.112053	0.356993	-0.503208	-0.130697	
566	5.6600	0.031050	0.098459	0.160723	0.027084	-0.116681	0.226818	0.000552	0.000142	-0.005201	-0.004374	-0.141369	-0.075577	0.227760	-0.007234	0.126181	0.175875	0.038891	0.059195	0.113257	0.018439	0.193018	0.109968	-0.099965	0.224570	0.025730	0.007493	-0.000995	0.238143	0.005481	0.085204	0.268223	-0.283597	0.003203	0.181028	-0.301469	-0.025195	0.292063	-0.540130	-0.112185	0.357068	-0.503098	-0.130728	
